<svg width="246" height="31" viewBox="0 0 246 31" fill="none" xmlns="http://www.w3.org/2000/svg">
<path d="M66.3828 10.2023L62.3672 19.0148C62.112 19.5721 61.8411 20.059 61.5547 20.4757C61.2734 20.8924 60.9349 21.2153 60.5391 21.4445C60.1432 21.6684 59.6484 21.7804 59.0547 21.7804C58.7422 21.7804 58.474 21.757 58.25 21.7101C58.026 21.6632 57.8281 21.6085 57.6562 21.546V20.7335C57.849 20.8273 58.0573 20.9002 58.2812 20.9523C58.5052 21.0044 58.7474 21.0304 59.0078 21.0304C59.4505 21.0304 59.8229 20.9419 60.125 20.7648C60.4323 20.5877 60.7005 20.3299 60.9297 19.9913C61.1589 19.6476 61.3802 19.2283 61.5938 18.7335L57.1328 10.2023H58.0156L61.5547 17.0226C61.6172 17.1372 61.6719 17.2491 61.7188 17.3585C61.7708 17.4627 61.8203 17.5695 61.8672 17.6788C61.9141 17.783 61.9609 17.895 62.0078 18.0148H62.0391C62.0807 17.9158 62.125 17.8116 62.1719 17.7023C62.2188 17.5877 62.2656 17.4757 62.3125 17.3663C62.3594 17.257 62.4036 17.158 62.4453 17.0695L65.5234 10.2023H66.3828ZM70.5656 12.9679C71.149 12.9679 71.6464 13.0538 72.0578 13.2257C72.4693 13.3976 72.7818 13.6476 72.9953 13.9757C73.2141 14.2986 73.3234 14.6919 73.3234 15.1554C73.3234 15.645 73.1932 16.0512 72.9328 16.3741C72.6724 16.6919 72.3052 16.9184 71.8313 17.0538V17.1007C72.2271 17.1892 72.5578 17.3299 72.8234 17.5226C73.0943 17.7153 73.2974 17.9575 73.4328 18.2491C73.5682 18.5356 73.6359 18.8663 73.6359 19.2413C73.6359 19.7622 73.5031 20.2127 73.2375 20.5929C72.9771 20.9731 72.6047 21.2674 72.1203 21.4757C71.6359 21.6788 71.0552 21.7804 70.3781 21.7804C70.0031 21.7804 69.649 21.757 69.3156 21.7101C68.9823 21.6632 68.6802 21.5981 68.4094 21.5148C68.1438 21.4262 67.912 21.3299 67.7141 21.2257V20.4523C68.0943 20.6554 68.5057 20.8142 68.9484 20.9288C69.3964 21.0434 69.8729 21.1007 70.3781 21.1007C70.8573 21.1007 71.2818 21.0304 71.6516 20.8898C72.0214 20.7491 72.313 20.5382 72.5266 20.257C72.7401 19.9757 72.8469 19.6215 72.8469 19.1945C72.8469 18.7882 72.7505 18.4601 72.5578 18.2101C72.3651 17.9549 72.0813 17.77 71.7063 17.6554C71.3313 17.5356 70.8677 17.4757 70.3156 17.4757H69.175V16.796H70.2297C70.938 16.796 71.5031 16.6684 71.925 16.4132C72.3469 16.1528 72.5578 15.7491 72.5578 15.2023C72.5578 14.6971 72.3833 14.3142 72.0344 14.0538C71.6906 13.7882 71.1906 13.6554 70.5344 13.6554C70.0708 13.6554 69.6568 13.7101 69.2922 13.8195C68.9276 13.9236 68.5526 14.0642 68.1672 14.2413L67.8781 13.5773C68.274 13.395 68.688 13.2491 69.1203 13.1398C69.5578 13.0252 70.0396 12.9679 70.5656 12.9679ZM77.4516 13.132V16.8507H82.8031V13.132H83.5922V21.6241H82.8031V17.546H77.4516V21.6241H76.6547V13.132H77.4516ZM90.1969 12.9835C91.1292 12.9835 91.8271 13.2179 92.2906 13.6866C92.7542 14.1554 92.9859 14.9028 92.9859 15.9288V21.6241H92.3766L92.2359 20.1398H92.1891C92.0068 20.4575 91.7854 20.7413 91.525 20.9913C91.2646 21.2361 90.9443 21.4288 90.5641 21.5695C90.1891 21.7101 89.7307 21.7804 89.1891 21.7804C88.6422 21.7804 88.1734 21.6892 87.7828 21.507C87.3974 21.3247 87.0979 21.059 86.8844 20.7101C86.676 20.3611 86.5719 19.9366 86.5719 19.4366C86.5719 18.5929 86.9208 17.9523 87.6187 17.5148C88.3167 17.0721 89.3193 16.8221 90.6266 16.7648L92.2047 16.6866V16.0695C92.2047 15.1997 92.0328 14.5799 91.6891 14.2101C91.3453 13.8403 90.8375 13.6554 90.1656 13.6554C89.7281 13.6554 89.3062 13.7127 88.9 13.8273C88.499 13.9366 88.0901 14.0955 87.6734 14.3038L87.4234 13.6476C87.8297 13.4549 88.2646 13.296 88.7281 13.171C89.1969 13.046 89.6865 12.9835 90.1969 12.9835ZM92.1969 17.3038L90.7125 17.3663C89.6344 17.4184 88.8141 17.6111 88.2516 17.9445C87.6891 18.2778 87.4078 18.7778 87.4078 19.4445C87.4078 19.9809 87.5745 20.3924 87.9078 20.6788C88.2464 20.9653 88.7151 21.1085 89.3141 21.1085C90.2464 21.1085 90.9573 20.8429 91.4469 20.3116C91.9417 19.7804 92.1917 19.0564 92.1969 18.1398V17.3038ZM101.927 13.8273H99.0516V21.6241H98.2781V13.8273H95.4188V13.132H101.927V13.8273ZM105.258 16.7101H108.281C108.948 16.7101 109.495 16.8038 109.922 16.9913C110.354 17.1788 110.674 17.4497 110.883 17.8038C111.096 18.158 111.203 18.5851 111.203 19.0851C111.203 19.6163 111.091 20.0721 110.867 20.4523C110.648 20.8273 110.31 21.1163 109.852 21.3195C109.393 21.5226 108.815 21.6241 108.117 21.6241H104.461V13.132H105.258V16.7101ZM110.406 19.0929C110.406 18.5252 110.219 18.1007 109.844 17.8195C109.469 17.5382 108.914 17.3976 108.18 17.3976H105.258V20.9523H108.055C108.852 20.9523 109.443 20.7986 109.828 20.4913C110.214 20.1788 110.406 19.7127 110.406 19.0929ZM118.858 16.5226C118.858 15.4549 118.941 14.5356 119.108 13.7648C119.28 12.9939 119.532 12.3585 119.866 11.8585C120.204 11.3533 120.623 10.9705 121.123 10.7101C121.681 10.3507 122.35 10.0747 123.131 9.88196C123.918 9.68925 124.829 9.533 125.866 9.41321L125.991 10.1163C125.449 10.1788 124.946 10.2491 124.483 10.3273C124.024 10.4054 123.605 10.4939 123.225 10.5929C122.845 10.6866 122.504 10.7934 122.202 10.9132C121.905 11.033 121.647 11.1684 121.428 11.3195C121.084 11.5278 120.79 11.8221 120.545 12.2023C120.301 12.5773 120.105 13.0408 119.959 13.5929C119.814 14.145 119.722 14.7908 119.686 15.5304H119.748C119.941 15.1814 120.191 14.8715 120.498 14.6007C120.811 14.3299 121.17 14.1163 121.577 13.9601C121.983 13.7986 122.428 13.7179 122.912 13.7179C123.626 13.7179 124.225 13.8689 124.709 14.171C125.199 14.4679 125.569 14.9054 125.819 15.4835C126.069 16.0564 126.194 16.7544 126.194 17.5773C126.194 18.421 126.058 19.1606 125.787 19.796C125.517 20.4262 125.11 20.9158 124.569 21.2648C124.032 21.6085 123.36 21.7804 122.553 21.7804C121.897 21.7804 121.334 21.6476 120.866 21.382C120.397 21.1111 120.014 20.7387 119.717 20.2648C119.426 19.7856 119.209 19.2283 119.069 18.5929C118.928 17.9523 118.858 17.2622 118.858 16.5226ZM122.616 21.0929C123.241 21.0929 123.756 20.9549 124.162 20.6788C124.569 20.3976 124.871 19.9991 125.069 19.4835C125.267 18.9627 125.366 18.3455 125.366 17.632C125.366 16.5747 125.149 15.7752 124.717 15.2335C124.285 14.6866 123.652 14.4132 122.819 14.4132C122.334 14.4132 121.894 14.5017 121.498 14.6788C121.103 14.8559 120.751 15.1007 120.444 15.4132C120.142 15.7205 119.881 16.0747 119.662 16.4757C119.662 17.0538 119.707 17.6189 119.795 18.171C119.884 18.7179 120.037 19.2127 120.256 19.6554C120.475 20.0981 120.774 20.4497 121.155 20.7101C121.54 20.9653 122.027 21.0929 122.616 21.0929ZM136.353 17.3663C136.353 18.0226 136.272 18.6215 136.111 19.1632C135.949 19.6997 135.71 20.1632 135.392 20.5538C135.074 20.9445 134.679 21.2465 134.205 21.4601C133.736 21.6736 133.189 21.7804 132.564 21.7804C131.97 21.7804 131.442 21.6762 130.978 21.4679C130.515 21.2544 130.121 20.9523 129.798 20.5616C129.481 20.171 129.239 19.7075 129.072 19.171C128.905 18.6294 128.822 18.0278 128.822 17.3663C128.822 16.4549 128.973 15.671 129.275 15.0148C129.582 14.3533 130.02 13.8481 130.588 13.4991C131.16 13.145 131.845 12.9679 132.642 12.9679C133.465 12.9679 134.15 13.1554 134.697 13.5304C135.249 13.9002 135.663 14.4158 135.939 15.0773C136.215 15.7387 136.353 16.5017 136.353 17.3663ZM129.634 17.3663C129.634 18.1111 129.741 18.7622 129.955 19.3195C130.168 19.8767 130.491 20.3116 130.923 20.6241C131.361 20.9366 131.913 21.0929 132.58 21.0929C133.262 21.0929 133.822 20.9366 134.259 20.6241C134.697 20.3116 135.02 19.8741 135.228 19.3116C135.436 18.7491 135.541 18.1007 135.541 17.3663C135.541 16.6528 135.442 16.0174 135.244 15.4601C135.046 14.9028 134.733 14.4653 134.306 14.1476C133.879 13.8247 133.322 13.6632 132.634 13.6632C131.65 13.6632 130.903 13.9913 130.392 14.6476C129.887 15.3038 129.634 16.2101 129.634 17.3663ZM145.387 21.6241H144.598V13.8195H141.63C141.531 15.158 141.414 16.3247 141.278 17.3195C141.143 18.309 140.968 19.1294 140.755 19.7804C140.541 20.4262 140.276 20.908 139.958 21.2257C139.64 21.5434 139.247 21.7023 138.778 21.7023C138.643 21.7023 138.523 21.6945 138.419 21.6788C138.315 21.6684 138.231 21.6528 138.169 21.632V20.9913C138.231 21.007 138.302 21.02 138.38 21.0304C138.458 21.0356 138.554 21.0382 138.669 21.0382C138.934 21.0382 139.171 20.9392 139.38 20.7413C139.588 20.5382 139.773 20.2309 139.934 19.8195C140.101 19.408 140.244 18.8898 140.364 18.2648C140.484 17.6346 140.588 16.8924 140.677 16.0382C140.77 15.184 140.854 14.2153 140.927 13.132H145.387V21.6241ZM149.82 16.7101H152.844C153.51 16.7101 154.057 16.8038 154.484 16.9913C154.917 17.1788 155.237 17.4497 155.445 17.8038C155.659 18.158 155.766 18.5851 155.766 19.0851C155.766 19.6163 155.654 20.0721 155.43 20.4523C155.211 20.8273 154.872 21.1163 154.414 21.3195C153.956 21.5226 153.378 21.6241 152.68 21.6241H149.023V13.132H149.82V16.7101ZM154.969 19.0929C154.969 18.5252 154.781 18.1007 154.406 17.8195C154.031 17.5382 153.477 17.3976 152.742 17.3976H149.82V20.9523H152.617C153.414 20.9523 154.005 20.7986 154.391 20.4913C154.776 20.1788 154.969 19.7127 154.969 19.0929ZM169.722 13.132V21.6241H158.917V13.132H159.706V20.9288H163.925V13.132H164.714V20.9288H168.933V13.132H169.722ZM176.569 12.9679C177.293 12.9679 177.894 13.1372 178.373 13.4757C178.858 13.8142 179.217 14.2778 179.452 14.8663C179.691 15.4549 179.811 16.1294 179.811 16.8898V17.4601H173.678C173.678 18.6267 173.946 19.5226 174.483 20.1476C175.024 20.7726 175.798 21.0851 176.803 21.0851C177.329 21.0851 177.785 21.0434 178.17 20.9601C178.561 20.8715 178.993 20.7231 179.467 20.5148V21.2413C179.051 21.4288 178.634 21.5642 178.217 21.6476C177.801 21.7361 177.321 21.7804 176.78 21.7804C175.92 21.7804 175.199 21.6033 174.616 21.2491C174.037 20.8898 173.6 20.3846 173.303 19.7335C173.011 19.0825 172.866 18.3221 172.866 17.4523C172.866 16.6033 173.006 15.8403 173.287 15.1632C173.574 14.4861 173.991 13.9523 174.537 13.5616C175.09 13.1658 175.767 12.9679 176.569 12.9679ZM176.561 13.6476C175.748 13.6476 175.09 13.9184 174.584 14.4601C174.084 14.9965 173.79 15.7726 173.702 16.7882H178.991C178.991 16.1684 178.902 15.6215 178.725 15.1476C178.548 14.6736 178.28 14.3064 177.92 14.046C177.566 13.7804 177.113 13.6476 176.561 13.6476Z" fill="#29A28C"/>
<path d="M203.5 16.8712H244.5M244.5 16.8712L233.5 11.1724M244.5 16.8712L233.5 21.4302" stroke="#29A28C"/>
<path d="M10.7396 4.0729C13.1759 1.6785 16.2831 0.356102 19.5 0.344604C26.0569 0.344604 31.4998 5.90093 32.0921 13.0658C35.9726 13.6909 39 17.3942 39 21.9393C39 26.9288 35.3486 30.9044 30.9246 30.9044H9.21619C4.16325 30.9044 0 26.3649 0 20.6752C0 15.7773 3.08587 11.7212 7.17112 10.6933C7.51969 8.2957 8.8725 5.90649 10.7396 4.0729ZM12.3313 6.17597C10.4861 7.99011 9.52087 10.1765 9.52087 11.8879V13.1325L8.43619 13.2686C5.031 13.6937 2.4375 16.8802 2.4375 20.6752C2.4375 24.7508 5.43562 28.1262 9.21619 28.1262H30.9246C34.0763 28.1262 36.5625 25.3147 36.5625 21.9393C36.5625 18.561 34.0763 15.7495 30.9246 15.7495H29.7058V14.3604C29.7083 8.19291 25.1745 3.12277 19.5 3.12277C16.8672 3.13475 14.3248 4.21857 12.3313 6.17874V6.17597Z" fill="#29A28C"/>
</svg>
